<?xml version="1.0" encoding="utf-8"?>
<!-- Generator: Adobe Illustrator 16.0.0, SVG Export Plug-In . SVG Version: 6.00 Build 0)  -->
<!DOCTYPE svg PUBLIC "-//W3C//DTD SVG 1.1//EN" "http://www.w3.org/Graphics/SVG/1.1/DTD/svg11.dtd">
<svg version="1.1" id="Layer_1" xmlns="http://www.w3.org/2000/svg" xmlns:xlink="http://www.w3.org/1999/xlink" x="0px" y="0px"
	 width="128px" height="128px" viewBox="0 0 128 128" enable-background="new 0 0 128 128" xml:space="preserve">
<g>
	<g>
		<path fill="#282D33" d="M63.999,74.236c-5.596,0-10.148-4.592-10.148-10.236c0-5.642,4.552-10.232,10.148-10.232
			c5.595,0,10.148,4.59,10.148,10.232C74.146,69.645,69.594,74.236,63.999,74.236z M63.999,57.768c-3.39,0-6.148,2.795-6.148,6.232
			c0,3.438,2.758,6.236,6.148,6.236s6.148-2.798,6.148-6.236C70.146,60.563,67.389,57.768,63.999,57.768z"/>
	</g>
	<g>
		<path fill="#282D33" d="M64,128C29.06,128,0.633,99.29,0.633,64C0.633,28.71,29.06,0,64,0s63.367,28.71,63.367,64
			C127.367,99.29,98.941,128,64,128z M64,4C31.265,4,4.633,30.916,4.633,64S31.265,124,64,124c32.734,0,59.367-26.916,59.367-60
			S96.734,4,64,4z"/>
	</g>
	<g>
		<g>
			<path fill="#282D33" d="M64,117.5c-9.328,0-18.517-2.499-26.572-7.227l-1.705-1l18.579-32.515l1.748,1.036
				c4.836,2.868,11.065,2.866,15.899,0l1.748-1.036l18.584,32.515l-1.707,1.001C82.514,115.001,73.324,117.5,64,117.5z
				 M41.178,107.789C48.193,111.53,56.042,113.5,64,113.5c7.955,0,15.804-1.969,22.826-5.711L72.189,82.182
				c-5.137,2.368-11.241,2.371-16.379,0L41.178,107.789z"/>
		</g>
		<g>
			<path fill="#282D33" d="M116.977,65.859H79.803l-0.014-1.986c-0.043-5.844-3.236-11.195-8.334-13.964l-1.795-0.976l18.594-32.536
				l1.736,0.989c16.59,9.455,26.928,27.26,26.98,46.467L116.977,65.859z M83.676,61.859h29.25
				c-0.705-16.336-9.42-31.354-23.201-39.973L75.107,47.461C79.92,50.758,83.057,56.026,83.676,61.859z"/>
		</g>
		<g>
			<path fill="#282D33" d="M48.216,66.331H11.052l-0.018-1.982c-0.008-0.168-0.011-0.259-0.011-0.349
				c0-18.863,10.018-36.536,26.144-46.122l1.749-1.04L57.483,49.33l-1.653,1.014c-4.777,2.928-7.629,8.034-7.629,13.657
				c0.01,0.125,0.016,0.227,0.016,0.331V66.331z M15.052,62.331h29.216c0.465-5.713,3.304-10.873,7.864-14.304L37.484,22.393
				C24.042,31.167,15.598,46.185,15.052,62.331z"/>
		</g>
	</g>
</g>
</svg>
